ModelForces
version=1
nRows=4
nColumns=157
inDegrees=no

This file contains the forces exerted on a model during a simulation.

A force is a generalized force, meaning that it can be either a force (N) or a torque (Nm).

Units are S.I. units (second, meters, Newtons, ...)
Angles are in degrees.

endheader
time	glut_med1_r	glut_med2_r	glut_med3_r	glut_min1_r	glut_min2_r	glut_min3_r	semimem_r	semiten_r	bifemlh_r	bifemsh_r	sar_r	add_long_r	add_brev_r	add_mag1_r	add_mag2_r	add_mag3_r	tfl_r	pect_r	grac_r	glut_max1_r	glut_max2_r	glut_max3_r	iliacus_r	psoas_r	quad_fem_r	gem_r	peri_r	rect_fem_r	vas_med_r	vas_int_r	vas_lat_r	med_gas_r	lat_gas_r	soleus_r	tib_post_r	flex_dig_r	flex_hal_r	tib_ant_r	per_brev_r	per_long_r	per_tert_r	ext_dig_r	ext_hal_r	glut_med1_l	glut_med2_l	glut_med3_l	glut_min1_l	glut_min2_l	glut_min3_l	semimem_l	semiten_l	bifemlh_l	bifemsh_l	sar_l	add_long_l	add_brev_l	add_mag1_l	add_mag2_l	add_mag3_l	tfl_l	pect_l	grac_l	glut_max1_l	glut_max2_l	glut_max3_l	iliacus_l	psoas_l	quad_fem_l	gem_l	peri_l	rect_fem_l	vas_med_l	vas_int_l	vas_lat_l	med_gas_l	lat_gas_l	soleus_l	tib_post_l	flex_dig_l	flex_hal_l	tib_ant_l	per_brev_l	per_long_l	per_tert_l	ext_dig_l	ext_hal_l	ercspn_r	ercspn_l	intobl_r	intobl_l	extobl_r	extobl_l	femur_lat_meniscii_r.femur_lat_r.force.X	femur_lat_meniscii_r.femur_lat_r.force.Y	femur_lat_meniscii_r.femur_lat_r.force.Z	femur_lat_meniscii_r.femur_lat_r.torque.X	femur_lat_meniscii_r.femur_lat_r.torque.Y	femur_lat_meniscii_r.femur_lat_r.torque.Z	femur_lat_meniscii_r.meniscus_lat_r.force.X	femur_lat_meniscii_r.meniscus_lat_r.force.Y	femur_lat_meniscii_r.meniscus_lat_r.force.Z	femur_lat_meniscii_r.meniscus_lat_r.torque.X	femur_lat_meniscii_r.meniscus_lat_r.torque.Y	femur_lat_meniscii_r.meniscus_lat_r.torque.Z	femur_med_meniscii_r.femur_med_r.force.X	femur_med_meniscii_r.femur_med_r.force.Y	femur_med_meniscii_r.femur_med_r.force.Z	femur_med_meniscii_r.femur_med_r.torque.X	femur_med_meniscii_r.femur_med_r.torque.Y	femur_med_meniscii_r.femur_med_r.torque.Z	femur_med_meniscii_r.meniscus_med_r.force.X	femur_med_meniscii_r.meniscus_med_r.force.Y	femur_med_meniscii_r.meniscus_med_r.force.Z	femur_med_meniscii_r.meniscus_med_r.torque.X	femur_med_meniscii_r.meniscus_med_r.torque.Y	femur_med_meniscii_r.meniscus_med_r.torque.Z	femur_med_tibia_r.tibia_upper_r.force.X	femur_med_tibia_r.tibia_upper_r.force.Y	femur_med_tibia_r.tibia_upper_r.force.Z	femur_med_tibia_r.tibia_upper_r.torque.X	femur_med_tibia_r.tibia_upper_r.torque.Y	femur_med_tibia_r.tibia_upper_r.torque.Z	femur_med_tibia_r.femur_med_r.force.X	femur_med_tibia_r.femur_med_r.force.Y	femur_med_tibia_r.femur_med_r.force.Z	femur_med_tibia_r.femur_med_r.torque.X	femur_med_tibia_r.femur_med_r.torque.Y	femur_med_tibia_r.femur_med_r.torque.Z	femur_lat_tibia_r.tibia_upper_r.force.X	femur_lat_tibia_r.tibia_upper_r.force.Y	femur_lat_tibia_r.tibia_upper_r.force.Z	femur_lat_tibia_r.tibia_upper_r.torque.X	femur_lat_tibia_r.tibia_upper_r.torque.Y	femur_lat_tibia_r.tibia_upper_r.torque.Z	femur_lat_tibia_r.femur_lat_r.force.X	femur_lat_tibia_r.femur_lat_r.force.Y	femur_lat_tibia_r.femur_lat_r.force.Z	femur_lat_tibia_r.femur_lat_r.torque.X	femur_lat_tibia_r.femur_lat_r.torque.Y	femur_lat_tibia_r.femur_lat_r.torque.Z	aACL_R	pACL_R	aPCL_R	pPCL_R	aMCL_R	mMCL_R	pMCL_R	aLCL_R	mLCL_R	pLCL_R	ground_prescribedForce_fx	ground_prescribedForce_fy	ground_prescribedForce_fz	ground_prescribedForce_px	ground_prescribedForce_py	ground_prescribedForce_pz
      0.22109892	      9.41022481	      6.94179641	      7.44943578	      3.22982769	      3.79843933	      3.97853519	      8.55524591	      5.06142952	      9.77047610	      8.95910854	      1.83619926	      6.89398326	      5.02120731	      3.57150183	      3.01686572	      5.00589216	      4.76969169	      2.72286821	      1.87086109	      4.47985226	      6.81187509	      5.10346865	     24.97045921	     15.59454844	      4.42418120	      3.23236714	      5.47271122	     15.13788241	     10.07575181	     10.80984661	     14.32853499	      3.53118999	      1.84842553	      9.09374825	     10.14204355	      1.77376796	      2.18352790	     16.37851009	      4.29179894	     10.11817054	      0.00000000	      8.81140424	      2.78176597	      9.41022481	      6.94179641	      7.44943578	      3.22982769	      3.79843933	      3.97853519	     11.39921358	      5.08041850	      9.91245093	      8.80413374	      1.84438737	      6.89398326	      5.02120731	      3.57150183	      3.01686572	      5.00589216	      4.72791858	      2.72286821	      1.89809860	      4.47985226	      6.81187509	      5.10346865	     24.97045921	     15.59454844	      4.42418120	      3.23236714	      5.47271122	     13.71013403	      8.11851498	      9.34925326	     10.04436567	     19.36429567	      8.99479946	     41.60616606	     46.63947366	      3.85986773	      3.94833476	     10.75576718	      5.67730106	     15.42725114	      2.41239761	      7.04607186	      2.21455656	     30.38918094	     30.38918094	     11.12623886	     11.12623886	     28.71653702	     28.71653702	     37.61708266	     62.31485610	     15.03141391	     -7.73643199	      0.90585828	     15.62426760	    -37.61708266	    -62.31485610	    -15.03141391	      2.12063249	     -1.07037169	     -0.88835354	     23.64460978	     40.49753827	     11.26164882	     -3.71999271	     -0.61373527	      9.97850393	    -23.64460978	    -40.49753827	    -11.26164882	     -0.50217968	      0.50131322	     -0.70948512	    -15.19465788	    -51.90462572	     -9.79735501	     -0.85201815	      0.36691688	     -0.62295227	     15.19465788	     51.90462572	      9.79735501	     -2.78137098	     -0.45189039	      6.70812762	      0.00000000	      0.00000000	      0.00000000	      0.00000000	      0.00000000	      0.00000000	      0.00000000	      0.00000000	      0.00000000	      0.00000000	      0.00000000	      0.00000000	     50.18786999	     47.80994058	      0.00000000	      0.00000000	      0.00000000	      0.00000000	      0.00000000	      3.17123610	      0.00000000	      0.00000000	    106.25000000	    -28.47000000	      0.00000000	      0.03000000	     -0.03000000	      0.00000000
      0.22153148	      9.39969155	      6.93460962	      7.44162770	      3.22662445	      3.79495345	      3.97409214	      8.54715396	      5.05703243	      9.75396165	      8.94487768	      1.83499668	      6.88676165	      5.01627015	      3.56782600	      3.01368628	      5.00012794	      4.76377228	      2.72014968	      1.86968533	      4.47520648	      6.80479183	      5.09807028	     24.95732398	     15.57962250	      4.41969757	      3.23021681	      5.46525756	     15.11771939	     10.07032309	     10.79770320	     14.30793628	      3.52820277	      1.84459453	      9.08706994	     10.13924407	      1.78944099	      2.18722512	     16.36001305	      4.28413707	     10.09181943	      5.02968980	      8.77123403	      2.77227735	      9.39969155	      6.93460962	      7.44162770	      3.22662445	      3.79495345	      3.97409214	     11.38447580	      5.07478038	      9.89998159	      8.79520333	      1.84256628	      6.88676165	      5.01627015	      3.56782600	      3.01368628	      5.00012794	      4.72434630	      2.72014968	      1.89619211	      4.47520648	      6.80479183	      5.09807028	     24.95732398	     15.57962250	      4.41969757	      3.23021681	      5.46525756	     13.69307822	      8.10988307	      9.33913213	     10.03352311	     19.33660274	      8.98191795	     41.54936022	     46.61573566	      3.85381293	      3.94267787	     10.74278707	      5.66987386	     15.41129697	      2.41009339	      7.03604418	      2.21144639	     30.35897473	     30.35897473	     11.11423094	     11.11423094	     28.70572012	     28.70572012	     37.73275843	     62.44562923	     15.03710361	     -7.74176158	      0.90853872	     15.67254906	    -37.73275843	    -62.44562923	    -15.03710361	      2.12398403	     -1.07330246	     -0.89157630	     23.68132903	     40.51240735	     11.27047053	     -3.72330257	     -0.61456243	      9.99353800	    -23.68132903	    -40.51240735	    -11.27047053	     -0.50228889	      0.50204234	     -0.71033363	    -15.16231900	    -51.79024749	     -9.78427245	     -0.84997979	      0.36619343	     -0.62162760	     15.16231900	     51.79024749	      9.78427245	     -2.77875272	     -0.45100394	      6.69385805	      0.00000000	      0.00000000	      0.00000000	      0.00000000	      0.00000000	      0.00000000	      0.00000000	      0.00000000	      0.00000000	      0.00000000	      0.00000000	      0.00000000	     50.21235518	     47.83665944	      0.00000000	      0.00000000	      0.00000000	      0.00000000	      0.00000000	      3.00701737	      0.00000000	      0.00000000	    106.25000000	    -28.47000000	      0.00000000	      0.03000000	     -0.03000000	      0.00000000
      0.22233443	      9.38029887	      6.92137742	      7.42725185	      3.22072663	      3.78853525	      3.96591207	      8.53236721	      5.04901128	      9.72298058	      8.91658154	      1.83278234	      6.87346559	      5.00718220	      3.56105816	      3.00783257	      4.98951553	      4.75263446	      2.71514420	      1.86755630	      4.46665295	      6.79175055	      5.08813124	     24.93314116	     15.55214424	      4.41144218	      3.22625821	      5.45152791	     15.08037220	     10.06113032	     10.77552585	     14.27005489	      3.52118025	      1.83648415	      9.06939446	     10.12965295	      1.81847126	      2.19395372	     16.32546012	      4.27288727	     10.04611186	      6.32717069	      8.69670601	      2.75465394	      9.38029887	      6.92137742	      7.42725185	      3.22072663	      3.78853525	      3.96591207	     11.35733566	      5.06440007	      9.87702081	      8.77876049	      1.83921351	      6.87346559	      5.00718220	      3.56105816	      3.00783257	      4.98951553	      4.71776945	      2.71514420	      1.89268180	      4.46665295	      6.79175055	      5.08813124	     24.93314116	     15.55214424	      4.41144218	      3.22625821	      5.45152791	     13.66167286	      8.09399120	      9.32049879	     10.01356186	     19.28557439	      8.95818206	     41.44472550	     46.57202459	      3.84266528	      3.93226422	     10.71888796	      5.65619607	     15.38191040	      2.40585128	      7.01756761	      2.20571644	     30.30335831	     30.30335831	     11.09212296	     11.09212296	     28.68580572	     28.68580572	     37.80348657	     62.50921984	     15.07673170	     -7.75974192	      0.91016837	     15.70208906	    -37.80348657	    -62.50921984	    -15.07673170	      2.12672250	     -1.07520149	     -0.89358349	     23.70707056	     40.49852175	     11.29038703	     -3.73191066	     -0.61515039	     10.00385369	    -23.70707056	    -40.49852175	    -11.29038703	     -0.50148130	      0.50252927	     -0.71078778	    -15.09685665	    -51.56236412	     -9.75353171	     -0.84597329	      0.36468221	     -0.61893342	     15.09685665	     51.56236412	      9.75353171	     -2.77167148	     -0.44914737	      6.66497805	      0.00000000	      0.00000000	      0.00000000	      0.00000000	      0.00000000	      0.00000000	      0.00000000	      0.00000000	      0.00000000	      0.00000000	      0.00000000	      0.00000000	     50.25042788	     47.87528387	      0.00000000	      0.00000000	      0.00000000	      0.00000000	      0.00000000	      2.87094290	      0.00000000	      0.00000000	    106.25000000	    -28.47000000	      0.00000000	      0.03000000	     -0.03000000	      0.00000000
      0.22411852	      9.33794150	      6.89247270	      7.39584997	      3.20784262	      3.77451487	      3.94804505	      8.50099773	      5.03198179	      9.65481437	      8.85417196	      1.82793964	      6.84442234	      4.98733421	      3.54627442	      2.99504651	      4.96633609	      4.72778988	      2.70420931	      1.86314426	      4.44796922	      6.76326418	      5.06642182	     24.88032255	     15.49213416	      4.39340802	      3.21761348	      5.42150876	     14.99921088	     10.04346779	     10.72850151	     14.18813207	      3.50497381	      1.81770996	      9.02532674	     10.09782420	      1.88382783	      2.20951045	     16.24847424	      4.25571239	      9.95403302	      7.34084516	      8.52803085	      2.71532489	      9.33794150	      6.89247270	      7.39584997	      3.20784262	      3.77451487	      3.94804505	     11.29802650	      5.04172732	      9.82685362	      8.74284082	      1.83188977	      6.84442234	      4.98733421	      3.54627442	      2.99504651	      4.96633609	      4.70340449	      2.70420931	      1.88501325	      4.44796922	      6.76326418	      5.06642182	     24.88032255	     15.49213416	      4.39340802	      3.21761348	      5.42150876	     13.59305892	      8.05928139	      9.27980246	      9.96996657	     19.17392082	      8.90624722	     41.21595441	     46.47651765	      3.81831505	      3.90952368	     10.66668063	      5.62630444	     15.31766250	      2.39658642	      6.97714473	      2.19318390	     30.18186024	     30.18186024	     11.04383340	     11.04383340	     28.64231090	     28.64231090	     37.90156219	     62.57852418	     15.15766907	     -7.79501473	      0.91224344	     15.74304949	    -37.90156219	    -62.57852418	    -15.15766907	      2.13068376	     -1.07770060	     -0.89636983	     23.74158631	     40.44657589	     11.33663003	     -3.75234385	     -0.61599539	     10.01738311	    -23.74158631	    -40.44657589	    -11.33663003	     -0.49919377	      0.50319227	     -0.71120069	    -14.92888334	    -50.98320278	     -9.67439017	     -0.83575622	      0.36077981	     -0.61201910	     14.92888334	     50.98320278	      9.67439017	     -2.75326466	     -0.44437310	      6.59088977	      0.00000000	      0.00000000	      0.00000000	      0.00000000	      0.00000000	      0.00000000	      0.00000000	      0.00000000	      0.00000000	      0.00000000	      0.00000000	      0.00000000	     50.31696907	     47.93692565	      0.00000000	      0.00000000	      0.00000000	      0.00000000	      0.00000000	      2.66542068	      0.00000000	      0.00000000	    106.25000000	    -28.47000000	      0.00000000	      0.03000000	     -0.03000000	      0.00000000
